STARTFONT 2.1
COMMENT
COMMENT Converted from OpenType font "Q:\font stuff\winfont\Nanosecond Thin BRK.ttf" by "otf2bdf 3.0".
COMMENT
FONT -FreeType-Nanosecond Thin BRK-Medium-R-Normal--84-840-72-72-P-278-ISO10646-1
SIZE 84 72 72
FONTBOUNDINGBOX 59 84 0 -13
STARTPROPERTIES 19
FOUNDRY "FreeType"
FAMILY_NAME "Nanosecond Thin BRK"
WEIGHT_NAME "Medium"
SLANT "R"
SETWIDTH_NAME "Normal"
ADD_STYLE_NAME ""
PIXEL_SIZE 84
POINT_SIZE 840
RESOLUTION_X 72
RESOLUTION_Y 72
SPACING "P"
AVERAGE_WIDTH 278
CHARSET_REGISTRY "ISO10646"
CHARSET_ENCODING "1"
FONT_ASCENT 70
FONT_DESCENT 13
COPYRIGHT "ÆNIGMA FONTS   [e-mail]  kentpw@norwich.net"
_OTF_FONTFILE "Q:\font stuff\winfont\Nanosecond Thin BRK.ttf"
_OTF_PSNAME "NanosecondThinBRK"
ENDPROPERTIES
CHARS 99
STARTCHAR 0020
ENCODING 32
SWIDTH 416 0
DWIDTH 35 0
BBX 0 0 0 0
BITMAP
ENDCHAR
STARTCHAR 0021
ENCODING 33
SWIDTH 107 0
DWIDTH 9 0
BBX 4 57 2 0
BITMAP
60
F0
F0
F0
F0
F0
F0
F0
F0
F0
F0
F0
F0
F0
F0
F0
F0
F0
F0
F0
F0
F0
F0
F0
F0
F0
F0
F0
F0
F0
F0
F0
F0
F0
F0
F0
F0
F0
F0
F0
F0
F0
F0
E0
00
00
00
00
00
00
00
00
00
F0
F0
F0
60
ENDCHAR
STARTCHAR 0022
ENCODING 34
SWIDTH 261 0
DWIDTH 22 0
BBX 18 18 2 39
BITMAP
600180
F003C0
F003C0
F003C0
F003C0
F003C0
F003C0
F003C0
F003C0
F003C0
F003C0
F003C0
F003C0
F003C0
F003C0
F003C0
F00180
600000
ENDCHAR
STARTCHAR 0023
ENCODING 35
SWIDTH 476 0
DWIDTH 40 0
BBX 36 57 2 0
BITMAP
003000C000
007801E000
007801E000
007801E000
007801E000
007801E000
007801E000
007801E000
007801E000
007801E000
007801E000
007801E000
00FC03F000
7FFFFFFFE0
FFFFFFFFF0
FFFFFFFFF0
7FFFFFFFF0
00FC03F000
007801E000
007801E000
007801E000
007801E000
007801E000
007801E000
007801E000
007801E000
007801E000
007801E000
007801E000
007801E000
007801E000
007801E000
007801E000
007801E000
007801E000
007801E000
007801E000
007801E000
007801E000
00FC03F000
FFFFFFFFE0
FFFFFFFFF0
FFFFFFFFF0
7FFFFFFFE0
00FC03F000
007801E000
007801E000
007801E000
007801E000
007801E000
007801E000
007801E000
007801E000
007801E000
007801E000
007801E000
003000C000
ENDCHAR
STARTCHAR 0024
ENCODING 36
SWIDTH 416 0
DWIDTH 35 0
BBX 31 84 2 -13
BITMAP
00018000
0003C000
0003C000
0003C000
0003C000
0003C000
0003C000
0003C000
0003C000
0003C000
0003C000
0003C000
0003C000
000FE000
007FFC00
01FFFF00
03FEFFC0
07FC7FE0
0FE00FE0
1F8003F0
3F0001F8
3E0000F8
7C00007C
7800003C
7800003C
F000003E
F000001E
F000001E
F000001E
F000001E
F000000E
F0000000
F8000000
78000000
78000000
3C000000
3E000000
1F000000
1F800000
0FF00000
07FFF000
01FFFE00
00FFFF00
001FFFC0
00001FE0
000003F0
000001F0
000000F8
00000078
0000003C
0000003C
0000003E
0000001E
E000001E
F000001E
F000001E
F000001E
F000001E
F000001E
7800003C
7800003C
7C00007C
3E0000F8
3F0001F8
1F8003F0
0FE00FF0
07FC7FE0
03FEFFC0
01FFFF00
003FFC00
0007E000
0003C000
0003C000
0003C000
0003C000
0003C000
0003C000
0003C000
0003C000
0003C000
0003C000
0003C000
0003C000
00018000
ENDCHAR
STARTCHAR 0025
ENCODING 37
SWIDTH 416 0
DWIDTH 35 0
BBX 31 57 2 0
BITMAP
03F0000C
0FFC001E
1FFF001E
3FFF001E
7E1F801E
7807803E
F007C03C
F003C03C
F003C07C
F003C078
F803C0F8
780780F0
7E1F81F0
3FFF01E0
1FFF03E0
0FFC03C0
03F007C0
00000F80
00000F80
00001F00
00001E00
00003E00
00007C00
0000F800
0000F800
0001F000
0003E000
0003E000
0007C000
000F8000
000F8000
001F0000
003E0000
003E0000
007C0000
00F80000
00F80000
01F00000
03E00000
03E00000
07C00F80
07803FE0
0F807FF8
0F00FFF8
1F01F07C
1E01E03E
3E03C03E
3C03C01E
7C03C01E
7803C01E
7803C01E
F803E03E
F001F07C
F000FFF8
F000FFF8
F0003FF0
60000FC0
ENDCHAR
STARTCHAR 0026
ENCODING 38
SWIDTH 416 0
DWIDTH 35 0
BBX 31 84 2 -13
BITMAP
00018000
0003C000
0003C000
0003C000
0003C000
0003C000
0003C000
0003C000
0003C000
0003C000
0003C000
0003C000
0003C000
0007E000
007FFC00
01FFFF00
03FEFFC0
07FC7FE0
0FE00FE0
1F8003F0
3F0001F8
3E0000F8
7C00007C
7800003C
7800003C
F000003E
F000001E
F000001E
F000001E
F000001E
F000000E
F0000000
F8000000
78000000
78000000
7C000000
3E000000
3F000000
1F800000
0FF00000
07FF8000
03FFC000
03FFC000
07FF8000
0FF00000
1F800000
3F000000
3E000000
7C000000
78000000
78000000
F0000000
F0000000
F000001C
F000001E
F000001E
F000001E
F000001E
F000001E
F800003E
7800003C
7C00007C
3C00007C
3E0001F8
1F8003F0
0FE00FF0
07FC7FE0
03FFFF80
00FFFF00
003FFC00
0007E000
0003C000
0003C000
0003C000
0003C000
0003C000
0003C000
0003C000
0003C000
0003C000
0003C000
0003C000
0003C000
00018000
ENDCHAR
STARTCHAR 0027
ENCODING 39
SWIDTH 107 0
DWIDTH 9 0
BBX 4 17 2 40
BITMAP
60
F0
F0
F0
F0
F0
F0
F0
F0
F0
F0
F0
F0
F0
F0
F0
60
ENDCHAR
STARTCHAR 0028
ENCODING 40
SWIDTH 261 0
DWIDTH 22 0
BBX 17 57 2 0
BITMAP
001F80
00FF80
03FF80
07FF80
0FE000
1F8000
3F0000
3E0000
7C0000
780000
780000
F00000
F00000
F00000
F00000
F00000
F00000
F00000
F00000
F00000
F00000
F00000
F00000
F00000
F00000
F00000
F00000
F00000
F00000
F00000
F00000
F00000
F00000
F00000
F00000
F00000
F00000
F00000
F00000
F00000
F00000
F00000
F00000
F00000
F00000
F00000
780000
780000
7C0000
3C0000
3E0000
1F8000
0FE000
07FF00
03FF80
00FF80
001F80
ENDCHAR
STARTCHAR 0029
ENCODING 41
SWIDTH 261 0
DWIDTH 22 0
BBX 17 57 3 0
BITMAP
7C0000
FF8000
FFE000
FFF000
03F800
00FC00
007E00
003E00
001F00
000F00
000F00
000780
000780
000780
000780
000780
000780
000780
000780
000780
000780
000780
000780
000780
000780
000780
000780
000780
000780
000780
000780
000780
000780
000780
000780
000780
000780
000780
000780
000780
000780
000780
000780
000780
000780
000780
000F00
000F00
001F00
003E00
007E00
00FC00
03F800
7FF000
FFE000
FF8000
FC0000
ENDCHAR
STARTCHAR 002A
ENCODING 42
SWIDTH 404 0
DWIDTH 34 0
BBX 30 28 2 28
BITMAP
00030000
00078000
00078000
00078000
00078000
00078000
00078000
00078000
00078000
70078038
7E0FC1F8
FFFFFFFC
7FFFFFF8
3FFFFFF0
07FFFF80
00FFFC00
007FF800
003FF000
003FF000
007FF800
007FF800
00FCFC00
01F87E00
01F03E00
03E01F00
07E01F80
07C00F80
03800700
ENDCHAR
STARTCHAR 002B
ENCODING 43
SWIDTH 416 0
DWIDTH 35 0
BBX 30 31 3 13
BITMAP
00030000
00078000
00078000
00078000
00078000
00078000
00078000
00078000
00078000
00078000
00078000
00078000
000FC000
FFFFFFFC
FFFFFFFC
FFFFFFFC
FFFFFFFC
000FC000
00078000
00078000
00078000
00078000
00078000
00078000
00078000
00078000
00078000
00078000
00078000
00078000
00030000
ENDCHAR
STARTCHAR 002C
ENCODING 44
SWIDTH 107 0
DWIDTH 9 0
BBX 4 17 2 -13
BITMAP
60
F0
F0
F0
F0
F0
F0
F0
F0
F0
F0
F0
F0
F0
F0
F0
60
ENDCHAR
STARTCHAR 002D
ENCODING 45
SWIDTH 416 0
DWIDTH 35 0
BBX 31 4 2 27
BITMAP
7FFFFFFC
FFFFFFFE
FFFFFFFE
7FFFFFFE
ENDCHAR
STARTCHAR 002E
ENCODING 46
SWIDTH 107 0
DWIDTH 9 0
BBX 4 4 2 0
BITMAP
70
F0
F0
70
ENDCHAR
STARTCHAR 002F
ENCODING 47
SWIDTH 416 0
DWIDTH 35 0
BBX 31 57 2 0
BITMAP
0000000C
0000001E
0000001E
0000001E
0000003E
0000003E
0000003C
0000007C
0000007C
00000078
000000F8
000000F8
000001F0
000001F0
000003E0
000007E0
000007C0
00000F80
00000F80
00001F00
00003F00
00003E00
00007C00
0000FC00
0000F800
0001F000
0003F000
0003E000
0007C000
000FC000
000F8000
001F0000
003F0000
003E0000
007C0000
00FC0000
00F80000
01F00000
03F00000
03E00000
07E00000
07C00000
0F800000
0F800000
1F000000
1F000000
3E000000
3E000000
7C000000
7C000000
78000000
F8000000
F8000000
F8000000
F8000000
F0000000
70000000
ENDCHAR
STARTCHAR 0030
ENCODING 48
SWIDTH 416 0
DWIDTH 35 0
BBX 31 57 2 0
BITMAP
001FF000
00FFFE00
03FFFF80
07FFFFC0
0FF01FE0
1F8003F0
1F0001F0
3E0000F8
7C000078
7800003C
7800003C
F000003E
F000001E
F000001E
F000001E
F000001E
F000001E
F000001E
F000001E
F000001E
F000001E
F000001E
F000001E
F000001E
F000001E
F000001E
F000001E
F000001E
F000001E
F000001E
F000001E
F000001E
F000001E
F000001E
F000001E
F000001E
F000001E
F000001E
F000001E
F000001E
F000001E
F000001E
F000001E
F000001E
F000001E
F800001E
7800003C
7800003C
7C00007C
3E0000F8
1F0001F0
1F8003F0
0FE00FE0
07FFFFC0
03FFFF80
00FFFE00
001FF000
ENDCHAR
STARTCHAR 0031
ENCODING 49
SWIDTH 107 0
DWIDTH 9 0
BBX 4 57 2 0
BITMAP
60
F0
F0
F0
F0
F0
F0
F0
F0
F0
F0
F0
F0
F0
F0
F0
F0
F0
F0
F0
F0
F0
F0
F0
F0
F0
F0
F0
F0
F0
F0
F0
F0
F0
F0
F0
F0
F0
F0
F0
F0
F0
F0
F0
F0
F0
F0
F0
F0
F0
F0
F0
F0
F0
F0
F0
60
ENDCHAR
STARTCHAR 0032
ENCODING 50
SWIDTH 416 0
DWIDTH 35 0
BBX 31 57 2 0
BITMAP
001FF000
00FFFE00
03FFFF80
07FFFFC0
0FF00FE0
1F8003F0
3F0001F0
3E0000F8
7C00007C
7800003C
7800003C
F000001E
F000001E
F000001E
F000001E
F000001E
F000001E
0000001E
0000001E
0000003C
0000003C
0000007C
000000F8
000001F8
000003F0
00000FE0
001FFFC0
00FFFF80
01FFFE00
07FFF000
0FF00000
1F800000
1F000000
3E000000
7C000000
78000000
78000000
F8000000
F0000000
F0000000
F0000000
F0000000
F0000000
F0000000
F0000000
F0000000
F0000000
F0000000
F0000000
F0000000
F0000000
F0000000
F8000000
7FFFFFFC
7FFFFFFE
3FFFFFFE
0FFFFFFC
ENDCHAR
STARTCHAR 0033
ENCODING 51
SWIDTH 416 0
DWIDTH 35 0
BBX 31 57 2 0
BITMAP
001FF000
00FFFE00
03FFFF80
07FFFFC0
0FF00FE0
1F8003F0
3F0001F0
3E0000F8
7C000078
7800003C
7800003C
F000001E
F000001E
F000001E
F000001E
F000001E
F000001E
0000001E
0000001E
0000003C
0000003C
0000007C
000000F8
000001F8
000003F0
00000FE0
0003FFE0
0003FF80
0003FF00
0003FF80
00000FE0
000003F0
000001F0
000000F8
0000007C
0000003C
0000003C
0000003E
0000001E
0000001E
E000001E
F000001E
F000001E
F000001E
F000001E
F000003E
F800003C
7800003C
7C00007C
3E0000F8
3F0001F8
1F8003F0
0FF01FE0
07FFFFC0
03FFFF00
00FFFE00
001FF000
ENDCHAR
STARTCHAR 0034
ENCODING 52
SWIDTH 416 0
DWIDTH 35 0
BBX 31 57 2 0
BITMAP
6000000C
F000001E
F000001E
F000001E
F000001E
F000001E
F000001E
F000001E
F000001E
F000001E
F000001E
F000001E
F000001E
F000001E
F000001E
F000001E
F000001E
F000001E
F000001E
F000001E
F000001E
F000001E
F000001E
F000001E
F000001E
F800003E
7FFFFFFE
7FFFFFFC
3FFFFFF8
0FFFFFFC
0000003E
0000001E
0000001E
0000001E
0000001E
0000001E
0000001E
0000001E
0000001E
0000001E
0000001E
0000001E
0000001E
0000001E
0000001E
0000001E
0000001E
0000001E
0000001E
0000001E
0000001E
0000001E
0000001E
0000001E
0000001E
0000001E
0000000C
ENDCHAR
STARTCHAR 0035
ENCODING 53
SWIDTH 416 0
DWIDTH 35 0
BBX 31 57 2 0
BITMAP
0FFFFFFC
3FFFFFFE
7FFFFFFE
7FFFFFFC
F8000000
F0000000
F0000000
F0000000
F0000000
F0000000
F0000000
F0000000
F0000000
F0000000
F0000000
F0000000
F0000000
F0000000
F0000000
F0000000
F0000000
F0000000
F0000000
F0000000
F0000000
F8000000
7FFFE000
7FFFFC00
3FFFFF00
0FFFFFC0
00001FE0
000003F0
000001F0
000000F8
0000007C
0000003C
0000003C
0000003E
0000001E
0000001E
0000001E
0000001E
0000001E
0000001E
0000001E
0000003E
0000003C
0000003C
0000007C
000000F8
000001F8
000003F0
00000FE0
7FFFFFC0
FFFFFF00
FFFFFE00
7FFFF000
ENDCHAR
STARTCHAR 0036
ENCODING 54
SWIDTH 416 0
DWIDTH 35 0
BBX 31 57 2 0
BITMAP
001FF000
00FFFE00
03FFFF80
07FFFFC0
0FF00FE0
1F8003F0
1F0001F8
3E0000F8
7C00007C
7800003C
7800003C
F000001E
F000001E
F000001E
F000001E
F000001E
F000001E
F0000000
F0000000
F0000000
F0000000
F0000000
F0000000
F0000000
F0000000
F8000000
FFFFE000
7FFFFC00
3FFFFF00
7FFFFFC0
F8001FE0
F00003F0
F00001F0
F00000F8
F000007C
F000003C
F000003C
F000003E
F000001E
F000001E
F000001E
F000001E
F000001E
F000001E
F000001E
F000003E
7800003C
7800003C
7C00007C
3E0000F8
3F0001F8
1F8003F0
0FF01FE0
07FFFFC0
01FFFF00
00FFFE00
001FF000
ENDCHAR
STARTCHAR 0037
ENCODING 55
SWIDTH 416 0
DWIDTH 35 0
BBX 31 57 2 0
BITMAP
7FFFFFE0
FFFFFFF8
FFFFFFFC
7FFFFFFC
0000003E
0000001E
0000001E
0000003E
0000003E
0000003E
0000003C
0000007C
0000007C
00000078
00000078
000000F8
000000F8
000000F0
000001F0
000001F0
000001E0
000001E0
000003E0
000003E0
000003C0
000007C0
000007C0
00000780
00000F80
00000F80
00000F80
00000F00
00001F00
00001F00
00001E00
00003E00
00003E00
00003C00
00003C00
00007C00
00007C00
00007800
0000F800
0000F800
0000F000
0000F000
0001F000
0001F000
0001E000
0003E000
0003E000
0003E000
0003C000
0003C000
0007C000
0007C000
00038000
ENDCHAR
STARTCHAR 0038
ENCODING 56
SWIDTH 416 0
DWIDTH 35 0
BBX 31 57 2 0
BITMAP
001FF000
00FFFE00
03FFFF80
07FFFFC0
0FF00FE0
1F8003F0
1F0001F0
3E0000F8
7C000078
7800003C
7800003C
F000001E
F000001E
F000001E
F000001E
F000001E
F000001E
F000001E
F800001E
7800003C
7800003C
7C00007C
3E0000F8
3F0001F8
1F8003F0
0FF01FE0
0FFFFFE0
07FFFF80
01FFFF00
03FFFF80
0FF01FE0
1FC003F0
1F0001F0
3E0000F8
7C00007C
7800003C
7800003C
F800003E
F000001E
F000001E
F000001E
F000001E
F000001E
F000001E
F000001E
F000003E
7800003C
7800003C
7C00007C
3E0000F8
3F0001F8
1F8003F0
0FF01FE0
07FFFFC0
01FFFF00
00FFFE00
001FF000
ENDCHAR
STARTCHAR 0039
ENCODING 57
SWIDTH 416 0
DWIDTH 35 0
BBX 31 57 2 0
BITMAP
001FF000
00FFFE00
03FFFF80
07FFFFC0
0FF00FE0
1F8003F0
3F0001F0
3E0000F8
7C000078
7800003C
7800003C
F000001E
F000001E
F000001E
F000001E
F000001E
F000001E
F000001E
F000001E
7800001E
7800001E
7C00001E
3E00001E
3F00001E
1F80001E
0FF0003E
07FFFFFE
01FFFFFC
00FFFFF8
001FFFFC
0000003E
0000001E
0000001E
0000001E
0000001E
0000001E
0000001E
0000001E
0000001E
0000001E
0000001E
0000001E
0000001E
0000001E
0000001E
0000001E
0000001E
0000001E
0000001E
0000001E
0000001E
0000001E
0000001E
0000001E
0000001E
0000001E
0000000C
ENDCHAR
STARTCHAR 003A
ENCODING 58
SWIDTH 107 0
DWIDTH 9 0
BBX 4 44 2 0
BITMAP
60
F0
F0
F0
00
00
00
00
00
00
00
00
00
00
00
00
00
00
00
00
00
00
00
00
00
00
00
00
00
00
00
00
00
00
00
00
00
00
00
00
F0
F0
F0
60
ENDCHAR
STARTCHAR 003B
ENCODING 59
SWIDTH 107 0
DWIDTH 9 0
BBX 4 57 2 -13
BITMAP
60
F0
F0
F0
00
00
00
00
00
00
00
00
00
00
00
00
00
00
00
00
00
00
00
00
00
00
00
00
00
00
00
00
00
00
00
00
00
00
00
60
F0
F0
F0
F0
F0
F0
F0
F0
F0
F0
F0
F0
F0
F0
F0
F0
60
ENDCHAR
STARTCHAR 003C
ENCODING 60
SWIDTH 416 0
DWIDTH 35 0
BBX 31 31 2 13
BITMAP
000000FC
000007FE
00003FFE
0000FFFE
0001FF80
0007FC00
000FF000
003FC000
007F0000
00FE0000
03FC0000
07F00000
0FE00000
7FC00000
FF800000
FE000000
FF800000
3FC00000
0FE00000
03F00000
01FC0000
00FE0000
007F0000
001FC000
000FF000
0007FC00
0001FF80
0000FFFC
00003FFE
000007FE
000000FC
ENDCHAR
STARTCHAR 003D
ENCODING 61
SWIDTH 416 0
DWIDTH 35 0
BBX 31 22 2 18
BITMAP
7FFFFFFC
FFFFFFFE
FFFFFFFE
7FFFFFFC
00000000
00000000
00000000
00000000
00000000
00000000
00000000
00000000
00000000
00000000
00000000
00000000
00000000
00000000
7FFFFFFC
FFFFFFFE
FFFFFFFE
7FFFFFFC
ENDCHAR
STARTCHAR 003E
ENCODING 62
SWIDTH 416 0
DWIDTH 35 0
BBX 31 31 2 13
BITMAP
7E000000
FFE00000
FFF80000
7FFE0000
03FF8000
007FC000
000FF000
0007F800
0001FC00
0000FF00
00007F80
00001FC0
00000FF0
000007FC
000001FE
000000FE
000001FE
000007F8
00000FE0
00001FC0
00003F00
0000FE00
0001FC00
0007F800
000FE000
007FC000
03FF0000
7FFE0000
FFF80000
FFC00000
7E000000
ENDCHAR
STARTCHAR 003F
ENCODING 63
SWIDTH 416 0
DWIDTH 35 0
BBX 31 57 2 0
BITMAP
001FF000
00FFFE00
03FFFF80
07FFFFC0
0FF00FE0
1F8003F0
3F0001F8
3E0000F8
7C00007C
7800003C
7800003C
F000001E
F000001E
F000001E
F000001E
F000001E
F000001E
0000001E
0000003E
0000003C
0000003C
0000007C
000000F8
000001F8
000003F0
00000FE0
00007FC0
0000FF80
0001FF00
0001FC00
0003E000
0003C000
0003C000
0003C000
0003C000
0003C000
0003C000
0003C000
0003C000
0003C000
0003C000
0003C000
0003C000
00018000
00000000
00000000
00000000
00000000
00000000
00000000
00000000
00000000
00000000
0003C000
0003C000
0003C000
00018000
ENDCHAR
STARTCHAR 0040
ENCODING 64
SWIDTH 738 0
DWIDTH 62 0
BBX 57 57 2 0
BITMAP
001FFFFFFFFC0000
00FFFFFFFFFF8000
01FFFFFFFFFFE000
07FFFFFFFFFFF000
0FF000000003F800
1F8000000000FC00
3F00000000007C00
3E00000000003E00
7C00000000001F00
7800000000000F00
7800000000000F00
F000000000000F80
F000000000000780
F000001FF8000780
F000001FFE000780
F000001FFF800780
F000001FFFC00780
F00000000FC00780
F000000003E00780
F000000001E00780
F000000001E00780
F000000000F00780
F000000000F00780
F000000000F00780
F000000000F00780
F000000001F00780
F0003FFFFFF00780
F000FFFFFFE00780
F001FFFFFFE00780
F001FFFFFFE00780
F003E00001E00780
F003C00000F00780
F003C00000F00780
F003C00000F00780
F003C00000F00780
F003C00000F00780
F001E00000F00780
F001E00000F00780
F001F00000F00780
F000FC0001F80F80
F0007FFFFFFFFF00
F0003FFFFFFFFF00
F0001FFFFFFFFE00
F00007FFFF0FF800
F000000000000000
F000000000000000
7800000000000000
7800000000000000
7C00000000000000
3E00000000000000
1E00000000000000
1F80000000000000
0FE0000000000000
07FFFFFFFFE00000
03FFFFFFFFF00000
00FFFFFFFFF00000
001FFFFFFFE00000
ENDCHAR
STARTCHAR 0041
ENCODING 65
SWIDTH 416 0
DWIDTH 35 0
BBX 31 57 2 0
BITMAP
001FF000
00FFFE00
03FFFF80
07FFFFC0
0FF00FE0
1F8003F0
1F0001F0
3E0000F8
7C000078
7800003C
7800003C
F000001E
F000001E
F000001E
F000001E
F000001E
F000001E
F000001E
F000001E
F000001E
F000001E
F000001E
F000001E
F000001E
F000001E
F800003E
FFFFFFFE
7FFFFFFC
3FFFFFF8
7FFFFFFC
F800003E
F000001E
F000001E
F000001E
F000001E
F000001E
F000001E
F000001E
F000001E
F000001E
F000001E
F000001E
F000001E
F000001E
F000001E
F000001E
F000001E
F000001E
F000001E
F000001E
F000001E
F000001E
F000001E
F000001E
F000001E
F000001E
6000000C
ENDCHAR
STARTCHAR 0042
ENCODING 66
SWIDTH 416 0
DWIDTH 35 0
BBX 31 57 2 0
BITMAP
0FFFF000
3FFFFC00
7FFFFF00
7FFFFFC0
F8001FE0
F00003F0
F00001F8
F00000F8
F000007C
F000003C
F000003C
F000001E
F000001E
F000001E
F000001E
F000001E
F000001E
F000001E
F000001E
F000003E
F000003C
F000007C
F00000FC
F00001F8
F00003F0
F8001FF0
FFFFFFE0
7FFFFF80
3FFFFF00
7FFFFF80
F8001FC0
F00003E0
F00001F0
F00000F8
F0000078
F000003C
F000003C
F000003E
F000001E
F000001E
F000001E
F000001E
F000001E
F000001E
F000001E
F000003E
F000003C
F000003C
F000007C
F00000F8
F00001F8
F00003F0
F8001FE0
7FFFFFC0
7FFFFF00
3FFFFE00
0FFFF000
ENDCHAR
STARTCHAR 0043
ENCODING 67
SWIDTH 416 0
DWIDTH 35 0
BBX 31 57 2 0
BITMAP
001FF000
00FFFE00
03FFFF80
07FFFFC0
0FF00FE0
1F8003F0
1F0001F8
3E0000F8
7C00007C
7800003C
7800003C
F000001E
F000001E
F000001E
F000001E
F000001E
F000001E
F0000000
F0000000
F0000000
F0000000
F0000000
F0000000
F0000000
F0000000
F0000000
F0000000
F0000000
F0000000
F0000000
F0000000
F0000000
F0000000
F0000000
F0000000
F0000000
F0000000
F0000000
F0000000
F0000000
F000001C
F000001E
F000001E
F000001E
F000001E
F800001E
7800003C
7800003C
7C00007C
3E0000F8
1F0001F8
1F8003F0
0FE00FE0
07FFFFC0
03FFFF80
00FFFE00
001FF000
ENDCHAR
STARTCHAR 0044
ENCODING 68
SWIDTH 416 0
DWIDTH 35 0
BBX 31 57 2 0
BITMAP
0FFFF000
3FFFFC00
7FFFFF00
7FFFFFC0
F8001FE0
F00003F0
F00001F8
F00000F8
F000007C
F000003C
F000003C
F000001E
F000001E
F000001E
F000001E
F000001E
F000001E
F000001E
F000001E
F000001E
F000001E
F000001E
F000001E
F000001E
F000001E
F000001E
F000001E
F000001E
F000001E
F000001E
F000001E
F000001E
F000001E
F000001E
F000001E
F000001E
F000001E
F000001E
F000001E
F000001E
F000001E
F000001E
F000001E
F000001E
F000001E
F000001E
F000003C
F000003C
F000007C
F00000F8
F00001F0
F00003F0
F8000FE0
7FFFFFC0
7FFFFF80
3FFFFE00
0FFFF000
ENDCHAR
STARTCHAR 0045
ENCODING 69
SWIDTH 416 0
DWIDTH 35 0
BBX 30 57 2 0
BITMAP
0FFFFFFC
3FFFFFFC
7FFFFFFC
7FFFFFFC
F8000000
F0000000
F0000000
F0000000
F0000000
F0000000
F0000000
F0000000
F0000000
F0000000
F0000000
F0000000
F0000000
F0000000
F0000000
F0000000
F0000000
F0000000
F0000000
F0000000
F0000000
F8000000
FFFF8000
7FFF8000
3FFF8000
7FFF8000
F8000000
F0000000
F0000000
F0000000
F0000000
F0000000
F0000000
F0000000
F0000000
F0000000
F0000000
F0000000
F0000000
F0000000
F0000000
F0000000
F0000000
F0000000
F0000000
F0000000
F0000000
F0000000
F8000000
7FFFFFFC
7FFFFFFC
3FFFFFFC
0FFFFFFC
ENDCHAR
STARTCHAR 0046
ENCODING 70
SWIDTH 416 0
DWIDTH 35 0
BBX 30 57 2 0
BITMAP
0FFFFFFC
3FFFFFFC
7FFFFFFC
7FFFFFFC
F8000000
F0000000
F0000000
F0000000
F0000000
F0000000
F0000000
F0000000
F0000000
F0000000
F0000000
F0000000
F0000000
F0000000
F0000000
F0000000
F0000000
F0000000
F0000000
F0000000
F0000000
F8000000
FFFF8000
7FFF8000
3FFF8000
7FFF8000
F8000000
F0000000
F0000000
F0000000
F0000000
F0000000
F0000000
F0000000
F0000000
F0000000
F0000000
F0000000
F0000000
F0000000
F0000000
F0000000
F0000000
F0000000
F0000000
F0000000
F0000000
F0000000
F0000000
F0000000
F0000000
F0000000
60000000
ENDCHAR
STARTCHAR 0047
ENCODING 71
SWIDTH 416 0
DWIDTH 35 0
BBX 31 57 2 0
BITMAP
001FF000
00FFFE00
03FFFF80
07FFFFC0
0FF00FE0
1F8003F0
1F0001F8
3E0000F8
7C00007C
7800003C
7800003C
F000001E
F000001E
F000001E
F000001E
F000001E
F000001E
F0000000
F0000000
F0000000
F0000000
F0000000
F0000000
F0000000
F0000000
F0000000
F003FFE0
F003FFF8
F003FFFC
F003FFFC
F000003E
F000001E
F000001E
F000001E
F000001E
F000001E
F000001E
F000001E
F000001E
F000001E
F000001E
F000001E
F000001E
F000001E
F000001E
F800001E
7800001E
7800001E
7C00001E
3E00001E
1F00001E
1F80001E
0FE0003E
07FFFFFC
03FFFFFC
00FFFFF8
001FFFE0
ENDCHAR
STARTCHAR 0048
ENCODING 72
SWIDTH 416 0
DWIDTH 35 0
BBX 31 57 2 0
BITMAP
6000000C
F000001E
F000001E
F000001E
F000001E
F000001E
F000001E
F000001E
F000001E
F000001E
F000001E
F000001E
F000001E
F000001E
F000001E
F000001E
F000001E
F000001E
F000001E
F000001E
F000001E
F000001E
F000001E
F000001E
F000001E
F800003E
FFFFFFFE
7FFFFFFC
3FFFFFF8
7FFFFFFC
F800003E
F000001E
F000001E
F000001E
F000001E
F000001E
F000001E
F000001E
F000001E
F000001E
F000001E
F000001E
F000001E
F000001E
F000001E
F000001E
F000001E
F000001E
F000001E
F000001E
F000001E
F000001E
F000001E
F000001E
F000001E
F000001E
6000000C
ENDCHAR
STARTCHAR 0049
ENCODING 73
SWIDTH 416 0
DWIDTH 35 0
BBX 30 57 3 0
BITMAP
7FF87FFC
FFFFFFFC
FFFFFFFC
7FFFFFFC
000FC000
00078000
00078000
00078000
00078000
00078000
00078000
00078000
00078000
00078000
00078000
00078000
00078000
00078000
00078000
00078000
00078000
00078000
00078000
00078000
00078000
00078000
00078000
00078000
00078000
00078000
00078000
00078000
00078000
00078000
00078000
00078000
00078000
00078000
00078000
00078000
00078000
00078000
00078000
00078000
00078000
00078000
00078000
00078000
00078000
00078000
00078000
00078000
000FC000
7FFFFFF8
FFFFFFFC
FFFFFFFC
FFF87FFC
ENDCHAR
STARTCHAR 004A
ENCODING 74
SWIDTH 416 0
DWIDTH 35 0
BBX 31 57 2 0
BITMAP
0000000C
0000001E
0000001E
0000001E
0000001E
0000001E
0000001E
0000001E
0000001E
0000001E
0000001E
0000001E
0000001E
0000001E
0000001E
0000001E
0000001E
0000001E
0000001E
0000001E
0000001E
0000001E
0000001E
0000001E
0000001E
0000001E
0000001E
0000001E
0000001E
0000001E
0000001E
0000001E
0000001E
0000001E
0000001E
0000001E
0000001E
0000001E
0000001E
0000001E
7000001E
F800001E
F800001E
F800001E
7800001E
7800001E
7C00003C
7C00003C
3E00007C
3E0000F8
1F0000F8
1FC003F0
0FF00FE0
07FFFFC0
01FFFF80
00FFFE00
001FF000
ENDCHAR
STARTCHAR 004B
ENCODING 75
SWIDTH 416 0
DWIDTH 35 0
BBX 31 57 2 0
BITMAP
6000000C
F000001E
F000001E
F000001E
F000001E
F000001E
F000001E
F000001E
F000001E
F000001E
F000001E
F000001E
F000001E
F000001E
F000001E
F000001E
F000001E
F000001E
F000001E
F000003E
F000003C
F000007C
F00000FC
F00001F8
F00003F0
F8001FF0
FFFFFFE0
7FFFFF80
3FFFFF00
7FFFFF80
F8001FC0
F00003E0
F00001F0
F00000F8
F0000078
F000003C
F000003C
F000003E
F000001E
F000001E
F000001E
F000001E
F000001E
F000001E
F000001E
F000001E
F000001E
F000001E
F000001E
F000001E
F000001E
F000001E
F000001E
F000001E
F000001E
F000001E
6000000C
ENDCHAR
STARTCHAR 004C
ENCODING 76
SWIDTH 416 0
DWIDTH 35 0
BBX 30 57 2 0
BITMAP
60000000
F0000000
F0000000
F0000000
F0000000
F0000000
F0000000
F0000000
F0000000
F0000000
F0000000
F0000000
F0000000
F0000000
F0000000
F0000000
F0000000
F0000000
F0000000
F0000000
F0000000
F0000000
F0000000
F0000000
F0000000
F0000000
F0000000
F0000000
F0000000
F0000000
F0000000
F0000000
F0000000
F0000000
F0000000
F0000000
F0000000
F0000000
F0000000
F0000000
F0000000
F0000000
F0000000
F0000000
F0000000
F0000000
F0000000
F0000000
F0000000
F0000000
F0000000
F0000000
F8000000
7FFFFFFC
7FFFFFFC
3FFFFFFC
0FFFFFFC
ENDCHAR
STARTCHAR 004D
ENCODING 77
SWIDTH 630 0
DWIDTH 53 0
BBX 49 57 2 0
BITMAP
001FFE3FFC0000
00FFFF7FFF0000
03FFFFFFFFC000
07FFFFFFFFF000
0FE007E007F800
1F8003C000FC00
1F0003C0007E00
3E0003C0003E00
7C0003C0001F00
780003C0000F00
780003C0000F00
F00003C0000780
F00003C0000780
F00003C0000780
F00003C0000780
F00003C0000780
F00003C0000780
F00003C0000780
F00003C0000780
F00003C0000780
F00003C0000780
F00003C0000780
F00003C0000780
F00003C0000780
F00003C0000780
F00003C0000780
F00003C0000780
F00003C0000780
F00003C0000780
F00003C0000780
F00003C0000780
F00003C0000780
F00003C0000780
F00003C0000780
F00003C0000780
F00003C0000780
F00003C0000780
F00003C0000780
F00003C0000780
F00003C0000780
F00003C0000780
F00003C0000780
F00003C0000780
F00003C0000780
F00003C0000780
F00003C0000780
F00003C0000780
F00003C0000780
F00003C0000780
F00003C0000780
F00003C0000780
F00003C0000780
F00003C0000780
F00003C0000780
F00003C0000780
F00003C0000780
60000180000300
ENDCHAR
STARTCHAR 004E
ENCODING 78
SWIDTH 416 0
DWIDTH 35 0
BBX 31 57 2 0
BITMAP
001FF000
00FFFE00
03FFFF80
07FFFFC0
0FF00FE0
1F8003F0
1F0001F0
3E0000F8
7C000078
7800003C
7800003C
F000001E
F000001E
F000001E
F000001E
F000001E
F000001E
F000001E
F000001E
F000001E
F000001E
F000001E
F000001E
F000001E
F000001E
F000001E
F000001E
F000001E
F000001E
F000001E
F000001E
F000001E
F000001E
F000001E
F000001E
F000001E
F000001E
F000001E
F000001E
F000001E
F000001E
F000001E
F000001E
F000001E
F000001E
F000001E
F000001E
F000001E
F000001E
F000001E
F000001E
F000001E
F000001E
F000001E
F000001E
F000001E
6000000C
ENDCHAR
STARTCHAR 004F
ENCODING 79
SWIDTH 416 0
DWIDTH 35 0
BBX 31 57 2 0
BITMAP
001FF000
00FFFE00
03FFFF80
07FFFFC0
0FF01FE0
1F8003F0
1F0001F0
3E0000F8
7C000078
7800003C
7800003C
F000003E
F000001E
F000001E
F000001E
F000001E
F000001E
F000001E
F000001E
F000001E
F000001E
F000001E
F000001E
F000001E
F000001E
F000001E
F000001E
F000001E
F000001E
F000001E
F000001E
F000001E
F000001E
F000001E
F000001E
F000001E
F000001E
F000001E
F000001E
F000001E
F000001E
F000001E
F000001E
F000001E
F000001E
F800001E
7800003C
7800003C
7C00007C
3E0000F8
1F0001F0
1F8003F0
0FE00FE0
07FFFFC0
03FFFF80
00FFFE00
001FF000
ENDCHAR
STARTCHAR 0050
ENCODING 80
SWIDTH 416 0
DWIDTH 35 0
BBX 31 57 2 0
BITMAP
0FFFF000
3FFFFE00
7FFFFF00
7FFFFFC0
F8001FE0
F00003F0
F00001F8
F00000F8
F000007C
F000003C
F000003C
F000001E
F000001E
F000001E
F000001E
F000001E
F000001E
F000001E
F000001E
F000003C
F000003C
F000007C
F00000F8
F00001F8
F00003F0
F8001FE0
FFFFFFC0
7FFFFF00
3FFFFE00
7FFFF000
F8000000
F0000000
F0000000
F0000000
F0000000
F0000000
F0000000
F0000000
F0000000
F0000000
F0000000
F0000000
F0000000
F0000000
F0000000
F0000000
F0000000
F0000000
F0000000
F0000000
F0000000
F0000000
F0000000
F0000000
F0000000
F0000000
60000000
ENDCHAR
STARTCHAR 0051
ENCODING 81
SWIDTH 416 0
DWIDTH 35 0
BBX 31 57 2 0
BITMAP
001FF000
00FFFE00
03FFFF00
07FFFFC0
0FF00FE0
1F8003F0
1F0001F0
3E0000F8
7C000078
7800003C
7800003C
F000001E
F000001E
F000001E
F000001E
F000001E
F000001E
F000001E
F000001E
F000001E
F000001E
F000001E
F000001E
F000001E
F000001E
F000001E
F000001E
F000001E
F000001E
F000001E
F000001E
F000001E
F000001E
F000001E
F000001E
F000001E
F000001E
F000001E
F000001E
F001801E
F003C01E
F003C01E
F003C01E
F003C01E
F003C01E
F803C03E
7803C03C
7C03C07C
7C03C07C
3E03C0F8
3F83C1F8
1FC3C7F0
0FFFFFE0
07FFFFC0
03FFFF80
01FFFF00
003C7800
ENDCHAR
STARTCHAR 0052
ENCODING 82
SWIDTH 416 0
DWIDTH 35 0
BBX 31 57 2 0
BITMAP
0FFFF000
3FFFFC00
7FFFFF00
7FFFFFC0
F8001FE0
F00003F0
F00001F8
F00000F8
F000007C
F000003C
F000003C
F000001E
F000001E
F000001E
F000001E
F000001E
F000001E
F000001E
F000001E
F000003E
F000003C
F000007C
F00000FC
F00001F8
F00003F0
F8001FF0
FFFFFFE0
7FFFFF80
3FFFFF00
7FFFFF80
F8001FC0
F00003E0
F00001F0
F00000F8
F0000078
F000003C
F000003C
F000003E
F000001E
F000001E
F000001E
F000001E
F000001E
F000001E
F000001E
F000001E
F000001E
F000001E
F000001E
F000001E
F000001E
F000001E
F000001E
F000001E
F000001E
F000001E
6000000C
ENDCHAR
STARTCHAR 0053
ENCODING 83
SWIDTH 416 0
DWIDTH 35 0
BBX 31 57 2 0
BITMAP
001FF000
00FFFE00
03FFFF80
07FFFFC0
0FF00FE0
1F8003F0
3F0001F8
3E0000F8
7C00007C
7800003C
7800003C
F000001E
F000001E
F000001E
F000001E
F000001E
F000001E
F0000000
F8000000
78000000
78000000
7C000000
3E000000
1F000000
1F800000
0FF00000
07FFF000
03FFFE00
00FFFF00
001FFFC0
00001FE0
000003F0
000001F0
000000F8
00000078
0000003C
0000003C
0000003E
0000001E
0000001E
E000001E
F000001E
F000001E
F000001E
F000001E
F000003E
7800003C
7800003C
7C00007C
3E0000F8
3F0001F0
1F8003F0
0FE00FE0
07FFFFC0
03FFFF80
00FFFE00
001FF000
ENDCHAR
STARTCHAR 0054
ENCODING 84
SWIDTH 416 0
DWIDTH 35 0
BBX 30 57 3 0
BITMAP
7FF87FFC
FFFFFFFC
FFFFFFFC
7FFFFFFC
000FC000
00078000
00078000
00078000
00078000
00078000
00078000
00078000
00078000
00078000
00078000
00078000
00078000
00078000
00078000
00078000
00078000
00078000
00078000
00078000
00078000
00078000
00078000
00078000
00078000
00078000
00078000
00078000
00078000
00078000
00078000
00078000
00078000
00078000
00078000
00078000
00078000
00078000
00078000
00078000
00078000
00078000
00078000
00078000
00078000
00078000
00078000
00078000
00078000
00078000
00078000
00078000
00030000
ENDCHAR
STARTCHAR 0055
ENCODING 85
SWIDTH 416 0
DWIDTH 35 0
BBX 31 57 2 0
BITMAP
6000000C
F000001E
F000001E
F000001E
F000001E
F000001E
F000001E
F000001E
F000001E
F000001E
F000001E
F000001E
F000001E
F000001E
F000001E
F000001E
F000001E
F000001E
F000001E
F000001E
F000001E
F000001E
F000001E
F000001E
F000001E
F000001E
F000001E
F000001E
F000001E
F000001E
F000001E
F000001E
F000001E
F000001E
F000001E
F000001E
F000001E
F000001E
F000001E
F000001E
F000001E
F000001E
F000001E
F000001E
F000001E
F000001E
7800003C
7800003C
7C00007C
3E0000F8
1F0001F0
1F8003F0
0FE00FE0
07FFFFC0
03FFFF80
00FFFE00
001FF000
ENDCHAR
STARTCHAR 0056
ENCODING 86
SWIDTH 416 0
DWIDTH 35 0
BBX 31 57 2 0
BITMAP
6000000C
F000001E
F000001E
F000001E
F000001E
F000001E
F000001E
F000001E
F000001E
F000001E
F000001E
F000001E
F000001E
F000001E
F000001E
F000001E
F000001E
F000001E
F000001E
F000001E
F000001E
F000001E
F000001E
F000001E
F000001E
F000001E
F000001E
F000001E
F000001E
F000001E
F000001E
F000001E
F000001E
F000001E
F000001E
F800003E
7800003C
7800003C
7800003C
7C00007C
3C000078
3C000078
3E0000F8
1E0000F0
1F0001F0
0F8003E0
0FC007C0
07E00FC0
03F01F80
01F83F00
00FEFE00
007FFC00
003FF800
000FE000
0007C000
0007C000
00038000
ENDCHAR
STARTCHAR 0057
ENCODING 87
SWIDTH 630 0
DWIDTH 53 0
BBX 49 57 2 0
BITMAP
60000180000300
F00003C0000780
F00003C0000780
F00003C0000780
F00003C0000780
F00003C0000780
F00003C0000780
F00003C0000780
F00003C0000780
F00003C0000780
F00003C0000780
F00003C0000780
F00003C0000780
F00003C0000780
F00003C0000780
F00003C0000780
F00003C0000780
F00003C0000780
F00003C0000780
F00003C0000780
F00003C0000780
F00003C0000780
F00003C0000780
F00003C0000780
F00003C0000780
F00003C0000780
F00003C0000780
F00003C0000780
F00003C0000780
F00003C0000780
F00003C0000780
F00003C0000780
F00003C0000780
F00003C0000780
F00003C0000780
F00003C0000780
F00003C0000780
F00003C0000780
F00003C0000780
F00003C0000780
F00003C0000780
F00003C0000780
F00003C0000780
F00003C0000780
F00003C0000780
F00003C0000780
780003C0000F00
780003C0000F00
7C0003C0001F00
3E0003C0003E00
3E0003C0007E00
1F8003C000FC00
0FE007E007F800
07FFFFFFFFF000
03FFFFFFFFC000
00FFFF7FFF8000
001FFE3FFC0000
ENDCHAR
STARTCHAR 0058
ENCODING 88
SWIDTH 416 0
DWIDTH 35 0
BBX 31 57 2 0
BITMAP
6000000C
F000001E
F000001E
F000001E
F000001E
F000001E
F000001E
F000001E
F000001E
F000001E
F000001E
F000001E
F000001E
F000001E
F000001E
F000001E
F000001E
F000001E
F000001E
7800003C
7800003C
7C00007C
3E0000F8
3F0001F8
1F8003F0
0FF01FE0
0FFFFFE0
03FFFF80
01FFFF00
03FFFF80
0FF01FE0
0F8003E0
1F0001F0
3E0000F8
3C000078
7800003C
7800003C
7800003C
F000001E
F000001E
F000001E
F000001E
F000001E
F000001E
F000001E
F000001E
F000001E
F000001E
F000001E
F000001E
F000001E
F000001E
F000001E
F000001E
F000001E
F000001E
6000000C
ENDCHAR
STARTCHAR 0059
ENCODING 89
SWIDTH 416 0
DWIDTH 35 0
BBX 31 57 2 0
BITMAP
6000000C
F000001E
F000001E
F000001E
F000001E
F000001E
F000001E
F000001E
F000001E
F000001E
F000001E
F000001E
F000001E
F000001E
F000001E
F000001E
F000001E
F000001E
F000001E
7800003C
7800003C
7C00007C
3C000078
3E0000F8
1F0001F0
0FC007F0
07F83FE0
03FEFFC0
01FFFF00
007FFC00
0007E000
0003C000
0003C000
0003C000
0003C000
0003C000
0003C000
0003C000
0003C000
0003C000
0003C000
0003C000
0003C000
0003C000
0003C000
0003C000
0003C000
0003C000
0003C000
0003C000
0003C000
0003C000
0003C000
0003C000
0003C000
0003C000
00018000
ENDCHAR
STARTCHAR 005A
ENCODING 90
SWIDTH 416 0
DWIDTH 35 0
BBX 31 57 2 0
BITMAP
7FFFFFE0
FFFFFFF8
FFFFFFFC
7FFFFFFC
0000003E
0000001E
0000001E
0000003E
0000003E
0000007C
000000FC
000000F8
000001F0
000001F0
000003E0
000007E0
000007C0
00000FC0
00001F80
00001F00
00003F00
00007E00
00007C00
0000FC00
0001F800
0001F000
0003F000
0007E000
0007C000
000FC000
001F8000
001F0000
003F0000
003E0000
007C0000
00FC0000
00F80000
01F00000
03F00000
03E00000
07E00000
0FC00000
0F800000
1F800000
1F000000
3E000000
7E000000
7C000000
7C000000
F8000000
F8000000
F8000000
F8000000
7FFFFFFC
7FFFFFFE
3FFFFFFE
0FFFFFFC
ENDCHAR
STARTCHAR 005B
ENCODING 91
SWIDTH 261 0
DWIDTH 22 0
BBX 17 57 2 0
BITMAP
0FFF80
3FFF80
7FFF80
7FFF80
F80000
F00000
F00000
F00000
F00000
F00000
F00000
F00000
F00000
F00000
F00000
F00000
F00000
F00000
F00000
F00000
F00000
F00000
F00000
F00000
F00000
F00000
F00000
F00000
F00000
F00000
F00000
F00000
F00000
F00000
F00000
F00000
F00000
F00000
F00000
F00000
F00000
F00000
F00000
F00000
F00000
F00000
F00000
F00000
F00000
F00000
F00000
F00000
F80000
7FFF00
7FFF80
3FFF80
0FFF80
ENDCHAR
STARTCHAR 005C
ENCODING 92
SWIDTH 416 0
DWIDTH 35 0
BBX 31 57 2 0
BITMAP
70000000
F0000000
F8000000
F8000000
F8000000
F8000000
78000000
7C000000
7C000000
3E000000
3E000000
1F000000
1F000000
0F800000
0F800000
07C00000
07C00000
03E00000
03F00000
01F00000
00F80000
00FC0000
007C0000
003E0000
003F0000
001F0000
000F8000
000FC000
0007C000
0003E000
0003F000
0001F000
0000F800
0000FC00
00007C00
00003E00
00003F00
00001F00
00001F80
00000F80
000007C0
000007C0
000003E0
000003E0
000001F0
000000F0
000000F8
00000078
0000007C
0000007C
0000003C
0000003E
0000003E
0000001E
0000001E
0000001E
0000001C
ENDCHAR
STARTCHAR 005D
ENCODING 93
SWIDTH 261 0
DWIDTH 22 0
BBX 17 57 3 0
BITMAP
7FF800
FFFE00
FFFF00
FFFF00
000F80
000780
000780
000780
000780
000780
000780
000780
000780
000780
000780
000780
000780
000780
000780
000780
000780
000780
000780
000780
000780
000780
000780
000780
000780
000780
000780
000780
000780
000780
000780
000780
000780
000780
000780
000780
000780
000780
000780
000780
000780
000780
000780
000780
000780
000780
000780
000780
000F80
7FFF00
FFFF00
FFFE00
FFF800
ENDCHAR
STARTCHAR 005E
ENCODING 94
SWIDTH 416 0
DWIDTH 35 0
BBX 31 17 2 40
BITMAP
00038000
0007C000
0007C000
001FF000
007FFC00
01FFFF00
07FEFFC0
0FF83FE0
1FE00FF0
3F8003F8
7E0000FC
7C00007C
F800003E
F800003E
F800001E
F000001E
7000001E
ENDCHAR
STARTCHAR 005F
ENCODING 95
SWIDTH 416 0
DWIDTH 35 0
BBX 31 4 2 -13
BITMAP
7FFFFFFC
FFFFFFFE
FFFFFFFE
7FFFFFFC
ENDCHAR
STARTCHAR 0060
ENCODING 96
SWIDTH 107 0
DWIDTH 9 0
BBX 4 17 2 40
BITMAP
60
F0
F0
F0
F0
F0
F0
F0
F0
F0
F0
F0
F0
F0
F0
F0
60
ENDCHAR
STARTCHAR 0061
ENCODING 97
SWIDTH 416 0
DWIDTH 35 0
BBX 31 31 2 0
BITMAP
0003FF00
0003FFC0
0003FFF0
0003FFF8
000001F8
0000007C
0000003C
0000003E
0000001E
0000001E
0000001E
0000001E
0000001E
0000003E
07FFFFFC
1FFFFFF8
3FFFFFFC
7FFFFFFE
7C00003E
F800001E
F800001E
F800001E
7800001E
7C00001E
7C00001E
3E00001E
3F80003E
1FFFFFFC
0FFFFFFC
07FFFFF8
00FFFFE0
ENDCHAR
STARTCHAR 0062
ENCODING 98
SWIDTH 416 0
DWIDTH 35 0
BBX 31 57 2 0
BITMAP
60000000
F0000000
F0000000
F0000000
F0000000
F0000000
F0000000
F0000000
F0000000
F0000000
F0000000
F0000000
F0000000
F0000000
F0000000
F0000000
F0000000
F0000000
F0000000
F0000000
F0000000
F0000000
F0000000
F0000000
F0000000
F8000000
FFFFE000
7FFFFC00
3FFFFF00
7FFFFFC0
F8001FE0
F00003F0
F00001F0
F00000F8
F000007C
F000003C
F000003C
F000003E
F000001E
F000001E
F000001E
F000001E
F000001E
F000001E
F000001E
F000003E
F000003C
F000003C
F000007C
F00000F8
F00001F8
F00003F0
F8001FE0
7FFFFFC0
7FFFFF00
3FFFFE00
0FFFF000
ENDCHAR
STARTCHAR 0063
ENCODING 99
SWIDTH 416 0
DWIDTH 35 0
BBX 30 31 2 0
BITMAP
001FFFFC
00FFFFFC
03FFFFFC
07FFFFFC
0FF00000
1F800000
3F000000
3E000000
7C000000
78000000
78000000
F8000000
F0000000
F0000000
F0000000
F0000000
F0000000
F0000000
F0000000
F0000000
78000000
78000000
7C000000
3E000000
3F000000
1F800000
0FE00000
07FFFFFC
03FFFFFC
00FFFFFC
001FFFFC
ENDCHAR
STARTCHAR 0064
ENCODING 100
SWIDTH 416 0
DWIDTH 35 0
BBX 31 57 2 0
BITMAP
0000000C
0000001E
0000001E
0000001E
0000001E
0000001E
0000001E
0000001E
0000001E
0000001E
0000001E
0000001E
0000001E
0000001E
0000001E
0000001E
0000001E
0000001E
0000001E
0000001E
0000001E
0000001E
0000001E
0000001E
0000001E
0000003E
000FFFFE
007FFFFC
01FFFFF8
07FFFFFC
0FF0003E
1FC0001E
3F00001E
3E00001E
7C00001E
7800001E
7800001E
F800001E
F000001E
F000001E
F000001E
F000001E
F000001E
F000001E
F000001E
F000001E
7800001E
7800001E
7C00001E
3E00001E
3F00001E
1F80001E
0FF0003E
07FFFFFC
01FFFFFC
00FFFFF8
001FFFE0
ENDCHAR
STARTCHAR 0065
ENCODING 101
SWIDTH 416 0
DWIDTH 35 0
BBX 31 31 2 0
BITMAP
01FFFE00
07FFFFC0
0FFFFFE0
1FFFFFF0
3F0001F8
7C00007C
7800007C
7800003E
F000001E
F000001E
F000001E
F000001E
F000001E
F800003E
7FFFFFFC
3FFFFFFC
7FFFFFF8
FFFFFFE0
F8000000
F0000000
F0000000
F0000000
F0000000
F8000000
78000000
7C000000
3F000000
3FFF0000
1FFF8000
07FF8000
01FF8000
ENDCHAR
STARTCHAR 0066
ENCODING 102
SWIDTH 416 0
DWIDTH 35 0
BBX 30 57 2 0
BITMAP
001FFFFC
00FFFFFC
03FFFFFC
07FFFFFC
0FE00000
1F800000
3F000000
3E000000
7C000000
78000000
78000000
F0000000
F0000000
F0000000
F0000000
F0000000
F0000000
F0000000
F0000000
F0000000
F0000000
F0000000
F0000000
F0000000
F0000000
F8000000
FFFF8000
7FFF8000
3FFF8000
7FFF8000
F8000000
F0000000
F0000000
F0000000
F0000000
F0000000
F0000000
F0000000
F0000000
F0000000
F0000000
F0000000
F0000000
F0000000
F0000000
F0000000
F0000000
F0000000
F0000000
F0000000
F0000000
F0000000
F0000000
F0000000
F0000000
F0000000
60000000
ENDCHAR
STARTCHAR 0067
ENCODING 103
SWIDTH 416 0
DWIDTH 35 0
BBX 31 44 2 -13
BITMAP
001FFFE0
00FFFFF8
01FFFFFC
07FFFFFC
0FF0003E
1FC0001E
3F00001E
3E00001E
7C00001E
7800001E
7800001E
F800001E
F000001E
F000001E
F000001E
F000001E
F000001E
F000001E
F000001E
F000001E
7800001E
7800001E
7C00001E
3E00001E
3F00001E
1F80001E
0FF0003E
07FFFFFC
01FFFFF8
007FFFFC
001FFFFE
0000003E
0000001E
0000001E
0000001E
0000001E
0000003E
0000003C
0000007C
000001F8
0001FFF8
0003FFF0
0003FFC0
0003FF00
ENDCHAR
STARTCHAR 0068
ENCODING 104
SWIDTH 416 0
DWIDTH 35 0
BBX 31 57 2 0
BITMAP
60000000
F0000000
F0000000
F0000000
F0000000
F0000000
F0000000
F0000000
F0000000
F0000000
F0000000
F0000000
F0000000
F0000000
F0000000
F0000000
F0000000
F0000000
F0000000
F0000000
F0000000
F0000000
F0000000
F0000000
F0000000
F8000000
FFFFE000
7FFFFC00
3FFFFF00
7FFFFFC0
F8001FE0
F00003F0
F00001F0
F00000F8
F000007C
F000003C
F000003C
F000003E
F000001E
F000001E
F000001E
F000001E
F000001E
F000001E
F000001E
F000001E
F000001E
F000001E
F000001E
F000001E
F000001E
F000001E
F000001E
F000001E
F000001E
F000001E
6000000C
ENDCHAR
STARTCHAR 0069
ENCODING 105
SWIDTH 107 0
DWIDTH 9 0
BBX 4 44 2 0
BITMAP
60
F0
F0
F0
00
00
00
00
00
00
00
00
00
60
F0
F0
F0
F0
F0
F0
F0
F0
F0
F0
F0
F0
F0
F0
F0
F0
F0
F0
F0
F0
F0
F0
F0
F0
F0
F0
F0
F0
F0
60
ENDCHAR
STARTCHAR 006A
ENCODING 106
SWIDTH 261 0
DWIDTH 22 0
BBX 17 57 3 -13
BITMAP
000300
000780
000780
000780
000000
000000
000000
000000
000000
000000
000000
000000
000000
000300
000780
000780
000780
000780
000780
000780
000780
000780
000780
000780
000780
000780
000780
000780
000780
000780
000780
000780
000780
000780
000780
000780
000780
000780
000780
000780
000780
000780
000780
000780
000780
000780
000F00
000F00
001F00
003E00
007E00
00FC00
03F800
FFF000
FFE000
FF8000
FC0000
ENDCHAR
STARTCHAR 006B
ENCODING 107
SWIDTH 416 0
DWIDTH 35 0
BBX 31 57 2 0
BITMAP
60000000
F0000000
F0000000
F0000000
F0000000
F0000000
F0000000
F0000000
F0000000
F0000000
F0000000
F0000000
F0000000
F000000E
F000001E
F000001E
F000001E
F000001E
F000003E
F000003C
F000003C
F000007C
F00000F8
F00001F8
F00003F0
F8001FE0
FFFFFFC0
7FFFFF80
3FFFFF00
7FFFFFC0
F8001FE0
F00003F0
F00001F8
F00000F8
F000007C
F000003C
F000003C
F000003E
F000001E
F000001E
F000001E
F000001E
F000001E
F000001E
F000001E
F000001E
F000001E
F000001E
F000001E
F000001E
F000001E
F000001E
F000001E
F000001E
F000001E
F000001E
6000000C
ENDCHAR
STARTCHAR 006C
ENCODING 108
SWIDTH 107 0
DWIDTH 9 0
BBX 4 57 2 0
BITMAP
60
F0
F0
F0
F0
F0
F0
F0
F0
F0
F0
F0
F0
F0
F0
F0
F0
F0
F0
F0
F0
F0
F0
F0
F0
F0
F0
F0
F0
F0
F0
F0
F0
F0
F0
F0
F0
F0
F0
F0
F0
F0
F0
F0
F0
F0
F0
F0
F0
F0
F0
F0
F0
F0
F0
F0
60
ENDCHAR
STARTCHAR 006D
ENCODING 109
SWIDTH 630 0
DWIDTH 53 0
BBX 49 31 2 0
BITMAP
001FFE3FFC0000
00FFFFFFFF0000
03FFFFFFFFC000
07FFFFFFFFF000
0FF007E007F800
1F8003C001FC00
1F0003C0007C00
3E0003C0003E00
7C0003C0001F00
780003C0000F00
780003C0000F00
F80003C0000F80
F00003C0000780
F00003C0000780
F00003C0000780
F00003C0000780
F00003C0000780
F00003C0000780
F00003C0000780
F00003C0000780
F00003C0000780
F00003C0000780
F00003C0000780
F00003C0000780
F00003C0000780
F00003C0000780
F00003C0000780
F00003C0000780
F00003C0000780
F00003C0000780
60000180000300
ENDCHAR
STARTCHAR 006E
ENCODING 110
SWIDTH 416 0
DWIDTH 35 0
BBX 31 31 2 0
BITMAP
001FF000
00FFFE00
03FFFF00
07FFFFC0
0FF01FE0
1F8003F0
1F0001F0
3E0000F8
7C000078
7800003C
7800003C
F800003E
F000001E
F000001E
F000001E
F000001E
F000001E
F000001E
F000001E
F000001E
F000001E
F000001E
F000001E
F000001E
F000001E
F000001E
F000001E
F000001E
F000001E
F000001E
6000000C
ENDCHAR
STARTCHAR 006F
ENCODING 111
SWIDTH 416 0
DWIDTH 35 0
BBX 31 31 2 0
BITMAP
001FF000
00FFFE00
03FFFF00
07FFFFC0
0FF01FE0
1F8003F0
1F0001F0
3E0000F8
7C000078
7C00003C
7800003C
F800003E
F000001E
F000001E
F000001E
F000001E
F000001E
F000001E
F000001E
F800003E
7800003C
7800003C
3C00007C
3E0000F8
1F0001F0
1F8003F0
0FF00FE0
07FFFFC0
03FFFF80
00FFFE00
001FF000
ENDCHAR
STARTCHAR 0070
ENCODING 112
SWIDTH 416 0
DWIDTH 35 0
BBX 31 44 2 -13
BITMAP
0FFFF000
3FFFFC00
7FFFFF00
7FFFFFC0
F8001FE0
F00003F0
F00001F0
F00000F8
F000007C
F000003C
F000003C
F000003E
F000001E
F000001E
F000001E
F000001E
F000001E
F000001E
F000001E
F000003E
F000003C
F000003C
F000007C
F00000F8
F00001F8
F00003F0
F8001FE0
7FFFFFC0
7FFFFF00
7FFFFC00
FFFFF000
F8000000
F0000000
F0000000
F0000000
F0000000
F0000000
F0000000
F0000000
F0000000
F0000000
F0000000
F0000000
60000000
ENDCHAR
STARTCHAR 0071
ENCODING 113
SWIDTH 416 0
DWIDTH 35 0
BBX 31 44 2 -13
BITMAP
001FFFE0
00FFFFF8
01FFFFFC
07FFFFFC
0FF0003E
1FC0001E
3F00001E
3E00001E
7C00001E
7800001E
7800001E
F800001E
F000001E
F000001E
F000001E
F000001E
F000001E
F000001E
F000001E
F000001E
7800001E
7800001E
7C00001E
3E00001E
3F00001E
1F80001E
0FF0003E
07FFFFFC
01FFFFF8
007FFFFC
001FFFFE
0000003E
0000001E
0000001E
0000001E
0000001E
0000001E
0000001E
0000001E
0000001E
0000001E
0000001E
0000001E
0000000C
ENDCHAR
STARTCHAR 0072
ENCODING 114
SWIDTH 416 0
DWIDTH 35 0
BBX 30 31 2 0
BITMAP
001FFFFC
00FFFFFC
03FFFFFC
07FFFFFC
0FE00000
1F800000
3F000000
3E000000
7C000000
78000000
78000000
F8000000
F0000000
F0000000
F0000000
F0000000
F0000000
F0000000
F0000000
F0000000
F0000000
F0000000
F0000000
F0000000
F0000000
F0000000
F0000000
F0000000
F0000000
F0000000
60000000
ENDCHAR
STARTCHAR 0073
ENCODING 115
SWIDTH 416 0
DWIDTH 35 0
BBX 31 31 2 0
BITMAP
00FFFFFE
03FFFFFE
0FFFFFFE
1FFFFFFE
3F800000
3E000000
7C000000
78000000
78000000
78000000
F0000000
F0000000
78000000
78000000
7FFFFFE0
3FFFFFF8
1FFFFFFC
0FFFFFFC
0000003E
0000001E
0000001E
0000001E
0000001E
0000003E
0000003C
0000007C
000001F8
7FFFFFF8
7FFFFFF0
FFFFFFC0
7FFFFF00
ENDCHAR
STARTCHAR 0074
ENCODING 116
SWIDTH 416 0
DWIDTH 35 0
BBX 30 44 3 0
BITMAP
00030000
00078000
00078000
00078000
00078000
00078000
00078000
00078000
00078000
00078000
00078000
00078000
000FC000
FFFFFFFC
FFFFFFFC
FFFFFFFC
FFFFFFFC
000FC000
00078000
00078000
00078000
00078000
00078000
00078000
00078000
00078000
00078000
00078000
00078000
00078000
00078000
00078000
00078000
00078000
00078000
00078000
00078000
00078000
00078000
00078000
00078000
00078000
00078000
00030000
ENDCHAR
STARTCHAR 0075
ENCODING 117
SWIDTH 416 0
DWIDTH 35 0
BBX 31 31 2 0
BITMAP
6000000C
F000001E
F000001E
F000001E
F000001E
F000001E
F000001E
F000001E
F000001E
F000001E
F000001E
F000001E
F000001E
F000001E
F000001E
F000001E
F000001E
F000001E
F000001E
F800003E
7800003C
7800003C
3C00007C
3E0000F8
1F0001F0
1F8003F0
0FE00FE0
07FFFFC0
03FFFF80
00FFFE00
001FF000
ENDCHAR
STARTCHAR 0076
ENCODING 118
SWIDTH 416 0
DWIDTH 35 0
BBX 31 31 2 0
BITMAP
6000000C
F000001E
F000001E
F000001E
F000001E
F000001E
F000001E
F000001E
F000001E
7800003C
7800003C
7800003C
7800003C
7C00007C
3C000078
3E0000F8
3E0000F8
1F0001F0
1F0001F0
0F8003E0
07C007C0
07E00FC0
03F83F80
01FC7F00
00FEFE00
007FFC00
001FF000
000FE000
0007C000
0007C000
00038000
ENDCHAR
STARTCHAR 0077
ENCODING 119
SWIDTH 630 0
DWIDTH 53 0
BBX 49 31 2 0
BITMAP
60000180000300
F00003C0000780
F00003C0000780
F00003C0000780
F00003C0000780
F00003C0000780
F00003C0000780
F00003C0000780
F00003C0000780
F00003C0000780
F00003C0000780
F00003C0000780
F00003C0000780
F00003C0000780
F00003C0000780
F00003C0000780
F00003C0000780
F00003C0000780
F00003C0000780
F00003C0000780
780003C0000F00
780003C0000F00
7C0003C0001F00
3E0003C0003E00
1F0003C0007E00
1F8003C000FC00
0FE007E007F800
07FFFFFFFFF000
03FFFFFFFFC000
00FFFF7FFF8000
001FFE3FFC0000
ENDCHAR
STARTCHAR 0078
ENCODING 120
SWIDTH 416 0
DWIDTH 35 0
BBX 31 31 2 0
BITMAP
6000000C
F000001E
F000001E
F000001E
F000001E
F000001E
7800003C
7800003C
7C00003C
3C000078
3E0000F8
1F0001F0
0F8003E0
0FF01FE0
03FFFF80
01FFFF00
03FFFF80
0FFFFFC0
0FF01FE0
1F8003F0
3F0001F8
3E0000F8
7C00007C
7800003C
7800003C
F000001E
F000001E
F000001E
F000001E
F000001E
6000000C
ENDCHAR
STARTCHAR 0079
ENCODING 121
SWIDTH 416 0
DWIDTH 35 0
BBX 31 44 2 -13
BITMAP
6000000C
F000001E
F000001E
F000001E
F000001E
F000001E
F000001E
F000001E
F000001E
F000001E
F000001E
F000001E
F000001E
F000001E
F000001E
F000001E
F000001E
F000001E
F000001E
F800001E
7800001E
7800001E
3C00001E
3E00001E
1F00001E
1F80001E
0FE0003E
07FFFFFC
01FFFFF8
00FFFFFC
001FFFFE
0000003E
0000001E
0000001E
0000001E
0000001E
0000003E
0000003C
0000007C
000001F8
0001FFF8
0003FFF0
0003FFC0
0003FF00
ENDCHAR
STARTCHAR 007A
ENCODING 122
SWIDTH 416 0
DWIDTH 35 0
BBX 31 31 2 0
BITMAP
7FFFFFE0
FFFFFFF8
FFFFFFFC
7FFFFFFC
0000003E
0000001E
0000003E
0000007E
000001FC
000003FC
00000FF0
00003FE0
0000FFC0
0003FF00
000FFE00
003FF800
007FE000
01FF8000
07FE0000
0FF80000
1FE00000
3F800000
7F000000
FC000000
F8000000
F8000000
F8000000
7FFFFFFC
7FFFFFFE
3FFFFFFE
0FFFFFFC
ENDCHAR
STARTCHAR 007B
ENCODING 123
SWIDTH 309 0
DWIDTH 26 0
BBX 21 57 3 0
BITMAP
0001F8
000FF8
003FF8
007FF8
00FE00
01F800
03F000
03E000
07C000
078000
078000
0F0000
0F0000
0F0000
0F0000
0F0000
0F0000
0F0000
0F0000
0F0000
0F0000
0F0000
0F0000
0F0000
0F0000
1F0000
FF0000
FE0000
FE0000
FE0000
3F0000
0F0000
0F0000
0F0000
0F0000
0F0000
0F0000
0F0000
0F0000
0F0000
0F0000
0F0000
0F0000
0F0000
0F0000
0F0000
078000
078000
07C000
03E000
03F000
01F800
00FE00
007FF8
003FF8
000FF8
0001F8
ENDCHAR
STARTCHAR 007C
ENCODING 124
SWIDTH 107 0
DWIDTH 9 0
BBX 4 84 2 -13
BITMAP
60
F0
F0
F0
F0
F0
F0
F0
F0
F0
F0
F0
F0
F0
F0
F0
F0
F0
F0
F0
F0
F0
F0
F0
F0
F0
F0
F0
F0
F0
F0
F0
F0
F0
F0
F0
F0
F0
F0
F0
F0
F0
F0
F0
F0
F0
F0
F0
F0
F0
F0
F0
F0
F0
F0
F0
F0
F0
F0
F0
F0
F0
F0
F0
F0
F0
F0
F0
F0
F0
F0
F0
F0
F0
F0
F0
F0
F0
F0
F0
F0
F0
F0
60
ENDCHAR
STARTCHAR 007D
ENCODING 125
SWIDTH 309 0
DWIDTH 26 0
BBX 23 57 2 0
BITMAP
7E0000
FFC000
FFE000
7FF800
03FC00
00FE00
003F00
001F80
000F80
000F80
0007C0
0007C0
0007C0
0007C0
0003C0
0003C0
0003C0
0003C0
0003C0
0003C0
0003C0
0003C0
0003C0
0003C0
0003C0
0003E0
0003FC
0001FE
0000FE
0001FE
0003F0
0003C0
0003C0
0003C0
0003C0
0003C0
0003C0
0003C0
0003C0
0003C0
0003C0
0003C0
0003C0
0003C0
0003C0
0003C0
000780
000780
000F80
001F00
003F00
007E00
01FC00
7FF800
7FF000
7FC000
7E0000
ENDCHAR
STARTCHAR 007E
ENCODING 126
SWIDTH 416 0
DWIDTH 35 0
BBX 31 13 2 22
BITMAP
00FC000C
03FF001E
0FFF801E
1FFF801E
3F87C01E
3E03C03E
7C03C03C
7C03C07C
7803E1F8
7803FFF8
F801FFF0
7800FFC0
70003F00
ENDCHAR
STARTCHAR 00C6
ENCODING 198
SWIDTH 630 0
DWIDTH 53 0
BBX 48 57 2 0
BITMAP
001FFC3FFFFE
00FFFFFFFFFF
03FFFFFFFFFF
07FFFFFFFFFE
0FE007E00000
1F8003C00000
3F0003C00000
3E0003C00000
7C0003C00000
780003C00000
780003C00000
F00003C00000
F00003C00000
F00003C00000
F00003C00000
F00003C00000
F00003C00000
F00003C00000
F00003C00000
F00003C00000
F00003C00000
F00003C00000
F00003C00000
F00003C00000
F00003C00000
F80007E00000
FFFFFFFFFE00
7FFFFFFFFE00
3FFFFFFFFE00
7FFFFFFFFE00
F80007E00000
F00003C00000
F00003C00000
F00003C00000
F00003C00000
F00003C00000
F00003C00000
F00003C00000
F00003C00000
F00003C00000
F00003C00000
F00003C00000
F00003C00000
F00003C00000
F00003C00000
F00003C00000
F00003C00000
F00003C00000
F00003C00000
F00003C00000
F00003C00000
F00003C00000
F00003E00000
F00001FFFFFE
F00001FFFFFF
F00000FFFFFF
6000003FFFFE
ENDCHAR
STARTCHAR 00E6
ENCODING 230
SWIDTH 630 0
DWIDTH 53 0
BBX 49 31 2 0
BITMAP
007FE007FF8000
007FF81FFFF000
007FFE3FFFF800
007FFF7FFFFC00
00003FFC007E00
00000FF0003F00
000007E0001F00
000007E0000F80
000003C0000780
000003C0000780
000003C0000780
000003C0000780
000003C0000780
000007E0000F80
0FFFFFFFFFFF00
3FFFFFFFFFFF00
7FFFFFFFFFFE00
7FFFFFFFFFF800
F80007E0000000
F00003C0000000
F00003C0000000
F00003C0000000
F80003C0000000
F80003E0000000
780003E0000000
7C0003F0000000
3F0007FC000000
3FFFFFFFFC0000
1FFFFFFFFE0000
07FFFF1FFE0000
01FFFC07FC0000
ENDCHAR
STARTCHAR E000
ENCODING 57344
SWIDTH 0 0
DWIDTH 0 0
BBX 0 0 0 0
BITMAP
ENDCHAR
STARTCHAR E001
ENCODING 57345
SWIDTH 500 0
DWIDTH 42 0
BBX 0 0 0 0
BITMAP
ENDCHAR
ENDFONT
